<svg width="60" height="60" viewBox="0 0 60 60" fill="none" xmlns="http://www.w3.org/2000/svg">
<g clip-path="url(#clip0_83:217)">
<g clip-path="url(#clip1_83:217)">
<path d="M57.3896 38.9545L43.9712 25.5328C46.4889 19.8168 45.4116 12.8861 40.7373 8.21074C34.6473 2.11929 24.7896 2.11847 18.6989 8.21074C12.6232 14.2879 12.6232 24.1761 18.6989 30.2533C23.527 35.0825 30.6026 36.0019 36.2512 33.3907L49.6011 46.7437C51.7535 48.8966 55.2377 48.8968 57.3901 46.7433C59.5366 44.5958 59.5364 41.1018 57.3896 38.9545V38.9545ZM21.1851 27.7675C16.4797 23.0611 16.4797 15.4031 21.1851 10.6965C25.901 5.9795 33.5343 5.97868 38.251 10.6965C42.9564 15.4031 42.9564 23.0611 38.251 27.7675C33.535 32.4846 25.9017 32.4853 21.1851 27.7675ZM54.9035 44.2578C54.1253 45.0363 52.8657 45.0367 52.0874 44.2579L39.3328 31.5003C40.3812 30.6751 41.3156 29.7274 42.1269 28.6608L54.9033 41.4402C55.6799 42.217 55.68 43.481 54.9035 44.2578V44.2578Z" fill="#F6862F"/>
<path d="M0.757892 24.7062H8.25378C9.2246 24.7062 10.0117 23.9192 10.0117 22.9483C10.0117 21.9775 9.2246 21.1904 8.25378 21.1904H0.757892C-0.212933 21.1904 -1 21.9775 -1 22.9483C-1 23.9192 -0.212933 24.7062 0.757892 24.7062Z" fill="#616465"/>
<path d="M0.757892 32.2065H11.0648C12.0356 32.2065 12.8227 31.4194 12.8227 30.4486C12.8227 29.4777 12.0356 28.6907 11.0648 28.6907H0.757892C-0.212933 28.6907 -1 29.4777 -1 30.4486C-1 31.4194 -0.212933 32.2065 0.757892 32.2065Z" fill="#616465"/>
<path d="M0.757892 39.7067H18.5608C19.5316 39.7067 20.3187 38.9196 20.3187 37.9488C20.3187 36.978 19.5316 36.1909 18.5608 36.1909H0.757892C-0.212933 36.1909 -1 36.978 -1 37.9488C-1 38.9196 -0.212933 39.7067 0.757892 39.7067Z" fill="#616465"/>
<path d="M39.1747 43.6914H0.757892C-0.212933 43.6914 -1 44.4785 -1 45.4493C-1 46.4201 -0.212933 47.2072 0.757892 47.2072H39.1747C40.1456 47.2072 40.9326 46.4201 40.9326 45.4493C40.9326 44.4785 40.1456 43.6914 39.1747 43.6914Z" fill="#616465"/>
</g>
</g>
<defs>
<clipPath id="clip0_83:217">
<rect width="60" height="60" fill="white"/>
</clipPath>
<clipPath id="clip1_83:217">
<rect width="60" height="60" fill="white" transform="translate(-1 -4)"/>
</clipPath>
</defs>
</svg>
