<svg width="45" height="55" viewBox="0 0 45 55" fill="none" xmlns="http://www.w3.org/2000/svg">
<path d="M4.96377 21.5947C4.78223 21.413 4.53027 21.3086 4.27344 21.3086C4.0166 21.3086 3.76475 21.4131 3.58301 21.5947C3.40127 21.7764 3.29688 22.0283 3.29688 22.2852C3.29688 22.542 3.40127 22.7939 3.58301 22.9755C3.76465 23.1572 4.0166 23.2617 4.27344 23.2617C4.53027 23.2617 4.78223 23.1572 4.96377 22.9755C5.14551 22.7939 5.25 22.542 5.25 22.2852C5.25 22.0283 5.14551 21.7764 4.96377 21.5947Z" fill="#616465"/>
<path d="M41.7734 5H22.0144C21.4751 5 21.0378 5.4373 21.0378 5.97656C21.0378 6.51582 21.4751 6.95312 22.0144 6.95312H41.7734C42.3119 6.95312 42.75 7.39121 42.75 7.92969V52.0703C42.75 52.6088 42.3119 53.0469 41.7734 53.0469H6.22656C5.68809 53.0469 5.25 52.6088 5.25 52.0703V25.931C5.25 25.3917 4.8127 24.9544 4.27344 24.9544C3.73418 24.9544 3.29688 25.3917 3.29688 25.931V52.0703C3.29688 53.6857 4.61113 55 6.22656 55H41.7734C43.3889 55 44.7031 53.6857 44.7031 52.0703V7.92969C44.7031 6.31426 43.3889 5 41.7734 5Z" fill="#616465"/>
<path d="M33.0195 43.8674H19.1523C18.6131 43.8674 18.1758 44.3047 18.1758 44.844C18.1758 45.3833 18.6131 45.8206 19.1523 45.8206H33.0195C33.5589 45.8206 33.9961 45.3833 33.9961 44.844C33.9961 44.3047 33.5588 43.8674 33.0195 43.8674Z" fill="#616465"/>
<path d="M33.0156 32.469H19.1484C18.6092 32.469 18.1719 32.9063 18.1719 33.4456C18.1719 33.9848 18.6092 34.4221 19.1484 34.4221H33.0156C33.555 34.4221 33.9922 33.9848 33.9922 33.4456C33.9922 32.9063 33.5549 32.469 33.0156 32.469Z" fill="#616465"/>
<path d="M15.6709 38.6846C15.4893 38.5028 15.2373 38.3984 14.9805 38.3984C14.7236 38.3984 14.4717 38.5029 14.29 38.6846C14.1084 38.8662 14.0039 39.1182 14.0039 39.375C14.0039 39.6327 14.1085 39.8838 14.29 40.0653C14.4717 40.2471 14.7236 40.3516 14.9805 40.3516C15.2373 40.3516 15.4893 40.2471 15.6709 40.0653C15.8535 39.8838 15.957 39.6318 15.957 39.375C15.957 39.1182 15.8535 38.8662 15.6709 38.6846Z" fill="#616465"/>
<path d="M15.6709 44.1533C15.4893 43.9716 15.2383 43.8672 14.9805 43.8672C14.7236 43.8672 14.4717 43.9717 14.29 44.1533C14.1084 44.335 14.0039 44.5869 14.0039 44.8438C14.0039 45.1015 14.1085 45.3525 14.29 45.5341C14.4717 45.7158 14.7236 45.8203 14.9805 45.8203C15.2373 45.8203 15.4893 45.7158 15.6709 45.5341C15.8535 45.3525 15.957 45.1016 15.957 44.8438C15.957 44.5869 15.8535 44.335 15.6709 44.1533Z" fill="#616465"/>
<path d="M15.667 32.7549C15.4854 32.5731 15.2344 32.4688 14.9766 32.4688C14.7197 32.4688 14.4678 32.5732 14.2861 32.7549C14.1045 32.9365 14 33.1885 14 33.4453C14 33.703 14.1046 33.9541 14.2861 34.1356C14.4678 34.3174 14.7197 34.4219 14.9766 34.4219C15.2334 34.4219 15.4854 34.3174 15.667 34.1356C15.8496 33.9541 15.9531 33.7031 15.9531 33.4453C15.9531 33.1885 15.8496 32.9365 15.667 32.7549Z" fill="#616465"/>
<path d="M33.0195 38.3987H19.1523C18.6131 38.3987 18.1758 38.836 18.1758 39.3752C18.1758 39.9145 18.6131 40.3518 19.1523 40.3518H33.0195C33.5589 40.3518 33.9961 39.9145 33.9961 39.3752C33.9961 38.836 33.5588 38.3987 33.0195 38.3987Z" fill="#616465"/>
<path d="M10.0642 0C10.579 0 11.0965 0.0393485 11.6021 0.116835C12.0152 0.180247 12.2987 0.566393 12.2354 0.979478C12.172 1.39256 11.7857 1.67572 11.3727 1.61276C10.9427 1.54678 10.5024 1.51341 10.0642 1.51341C5.34921 1.51341 1.51333 5.34929 1.51333 10.0642C1.51333 12.158 2.27019 14.078 3.5242 15.5662C4.07909 14.612 4.837 13.789 5.75693 13.1505C6.29381 12.7779 6.87064 12.4805 7.47449 12.2604C6.78529 11.5867 6.35631 10.6479 6.35631 9.61029V8.87251C6.35631 6.82789 8.01962 5.16458 10.0642 5.16458C12.1087 5.16458 13.772 6.82789 13.772 8.87251V9.61029C13.772 10.6479 13.3431 11.5867 12.6538 12.2604C13.2576 12.4805 13.8344 12.7779 14.3714 13.1505C15.2957 13.7921 16.0567 14.6197 16.6122 15.5797C17.5677 14.4443 18.2356 13.0477 18.4969 11.4897C18.566 11.0777 18.9565 10.7997 19.3683 10.8686C19.7805 10.9377 20.0586 11.3279 19.9895 11.74C19.6004 14.0601 18.3959 16.1837 16.5979 17.7196C14.7795 19.273 12.4591 20.1286 10.0642 20.1286C4.5148 20.1286 0 15.6138 0 10.0643C0 4.51487 4.51472 0 10.0642 0ZM12.2586 8.87243C12.2586 7.66238 11.2741 6.67791 10.0642 6.67791C8.85419 6.67791 7.86972 7.66238 7.86972 8.87243V9.61022C7.86972 10.8202 8.85419 11.8047 10.0642 11.8047C11.2741 11.8047 12.2586 10.8202 12.2586 9.61022V8.87243ZM10.0642 18.6151C12.1129 18.6151 14.0069 17.8997 15.4893 16.6868C14.4732 14.6247 12.3959 13.3181 10.0642 13.3181C7.73722 13.3181 5.66393 14.6193 4.64556 16.674C6.12166 17.8863 8.00941 18.6151 10.0642 18.6151Z" fill="#F6862F"/>
</svg>
