<svg width="718" height="541" viewBox="0 0 718 541" fill="none" xmlns="http://www.w3.org/2000/svg">
<g filter="url(#filter0_d_59:1516)">
<path d="M38.2875 299.427L318.702 139.879C325.548 135.985 333.296 133.958 341.171 133.999C349.046 134.04 356.773 136.148 363.577 140.112L652.572 308.346C656.364 310.549 659.509 313.712 661.691 317.515C663.873 321.319 665.015 325.63 665.003 330.015C664.99 334.399 663.823 338.704 661.619 342.495C659.415 346.286 656.251 349.43 652.447 351.611L382.748 506.422C373.611 511.673 363.256 514.436 352.718 514.436C342.179 514.436 331.824 511.673 322.687 506.422L38.1977 342.8C34.3785 340.607 31.207 337.444 29.0044 333.631C26.8019 329.818 25.6467 325.491 25.6558 321.088C25.6649 316.685 26.8381 312.362 29.0563 308.558C31.2746 304.754 34.4592 301.604 38.2875 299.427V299.427Z" fill="#E5E1E1"/>
<path opacity="0.32" d="M259.431 461.972L274.42 451.834L383.017 362.109L357.313 351.073C341.894 355.2 314.233 367.223 299.873 373.773C278.674 383.535 257.206 392.382 235.486 400.924C223.46 405.709 211.415 410.423 199.353 415.064C220.965 428.667 240.351 445.104 259.431 461.972Z" fill="url(#paint0_linear_59:1516)"/>
<path d="M146.095 208.16V207.908" stroke="#61587D" stroke-width="1.015"/>
<path d="M139.436 208.16V207.908" stroke="#61587D" stroke-width="1.015"/>
<path d="M126.135 207.908V208.16" stroke="#61587D" stroke-width="1.015"/>
<path d="M132.794 208.16V207.908" stroke="#61587D" stroke-width="1.015"/>
<path d="M119.475 207.908V208.16" stroke="#61587D" stroke-width="1.015"/>
<path d="M369.178 373.988L347.476 364.406V198.72L375.981 188.546" fill="#7F1D18"/>
<path d="M382.766 167.012V362.019L369.178 373.988V186.159" fill="#F9C079"/>
<path d="M253.974 207.567V135.411C253.974 135.411 252.072 122.598 274.868 111.203C297.665 99.8078 373.162 55.6633 373.162 55.6633C373.162 55.6633 410.193 49.0236 430.136 103.128C433.629 112.233 435.864 121.772 436.777 131.481V188.097L327.085 248.858L253.974 207.567Z" fill="#F5961F"/>
<path d="M258.211 202.309V134.459C258.211 134.459 260.58 115.474 280.056 122.113C299.532 128.753 319.941 154.863 324.213 179.071V240.299L260.58 203.278" fill="#E98669"/>
<path d="M353.651 75.8334C353.651 74.1287 352.269 72.7468 350.564 72.7468C348.859 72.7468 347.476 74.1287 347.476 75.8334V197.823C347.476 199.528 348.859 200.91 350.564 200.91C352.269 200.91 353.651 199.528 353.651 197.823V75.8334Z" fill="#F9C079"/>
<path d="M353.615 72.7468C353.615 72.7468 395.869 68.4759 398.724 68.9425C401.578 69.4091 353.615 115.007 353.615 115.007" fill="#F9C079"/>
<path d="M257.188 208.787L214.449 260.523C214.449 260.523 194.973 290.437 226.798 307.52C258.624 324.604 288.528 289.001 288.528 289.001L325.092 247.172L257.188 208.787Z" fill="#F9B246"/>
<path d="M253.454 207.567L210.715 259.302C210.715 259.302 191.239 289.217 223.065 306.3C254.89 323.384 284.795 287.781 284.795 287.781L321.305 246.023L253.454 207.567Z" fill="#FFD7CB"/>
<path d="M315.92 156.209C307.196 140.184 293.357 126.42 280.02 121.844C260.58 115.205 258.211 134.119 258.211 134.119V202.309C279.751 185.046 290.108 177.689 315.92 156.209Z" fill="#C89287"/>
<path d="M416.734 170.955C424.191 155.846 420.456 138.774 408.391 132.823C396.327 126.873 380.502 134.298 373.046 149.407C365.589 164.517 369.325 181.589 381.389 187.539C393.453 193.49 409.278 186.065 416.734 170.955Z" fill="#FFD7CB"/>
<path d="M404.324 143.468C405.652 144.492 406.709 145.825 407.404 147.352C408.098 148.878 408.409 150.551 408.309 152.225C408.392 155.385 407.676 158.514 406.226 161.323C405.166 163.782 403.254 165.776 400.841 166.94C400.31 167.26 399.676 167.366 399.069 167.236C398.463 167.106 397.928 166.75 397.575 166.24C396.89 167.809 395.668 169.082 394.128 169.829C393.476 170.157 392.734 170.26 392.017 170.124C391.3 169.988 390.648 169.619 390.161 169.075C388.878 167.495 388.237 165.49 388.366 163.458C388.269 160.925 388.845 158.411 390.036 156.173C390.934 154.26 392.47 152.718 394.379 151.812C394.855 151.586 395.379 151.48 395.905 151.505C396.431 151.531 396.943 151.685 397.395 151.956L397.61 150.825L401.2 149.354L400.411 160.264C400.411 161 400.411 161.646 400.411 162.184C400.411 162.723 400.68 163.064 401.183 162.848C402.384 162.112 403.287 160.974 403.731 159.636C404.555 157.8 404.942 155.797 404.862 153.786C404.955 152.528 404.734 151.267 404.221 150.114C403.707 148.962 402.916 147.955 401.918 147.182C400.906 146.541 399.743 146.177 398.546 146.127C397.349 146.077 396.16 146.342 395.097 146.895C392.012 148.298 389.485 150.692 387.917 153.696C386.016 156.895 385.058 160.565 385.153 164.284C385.091 165.724 385.325 167.161 385.84 168.507C386.356 169.852 387.142 171.078 388.151 172.108C390.071 173.902 392.71 174.082 396.085 172.682C399.152 171.257 401.881 169.195 404.09 166.635L405.419 169.955C402.861 172.841 399.715 175.148 396.192 176.72C391.777 178.514 388.241 178.335 385.566 176.092C382.891 173.849 381.491 170.421 381.384 165.809C381.279 160.956 382.596 156.179 385.171 152.063C387.365 148.105 390.777 144.958 394.9 143.091C398.634 141.536 401.775 141.661 404.324 143.468ZM396.515 162.705C397.11 161.462 397.405 160.098 397.377 158.721C397.413 158.301 397.358 157.879 397.215 157.482C397.073 157.086 396.846 156.725 396.551 156.424C396.313 156.205 396.014 156.064 395.693 156.019C395.372 155.974 395.046 156.028 394.756 156.173C393.915 156.622 393.274 157.372 392.961 158.272C392.455 159.449 392.222 160.725 392.279 162.005C392.257 162.929 392.473 163.844 392.908 164.661C392.964 164.795 393.047 164.916 393.151 165.017C393.256 165.119 393.38 165.198 393.516 165.25C393.652 165.302 393.797 165.325 393.942 165.32C394.087 165.314 394.23 165.279 394.362 165.217C395.387 164.687 396.175 163.79 396.569 162.705" fill="#F9C079"/>
<path d="M479.534 254.673L432.075 229.496L622.937 185.908L480.504 260.487L479.534 254.673Z" fill="#F5961F"/>
<path d="M480.504 260.487L491.166 298.261L622.937 185.908L480.504 260.487Z" fill="#3B3B3B"/>
<path d="M502.798 272.115L554.135 298.261L622.937 185.908L502.798 272.115Z" fill="#F5961F"/>
<path d="M502.798 272.115L491.166 298.261L514.716 278.181L502.798 272.115Z" fill="#F8B662"/>
<path d="M424.625 316.475C375.694 328.696 315.705 321.051 286.859 274.645C264.476 238.666 273.576 188.599 305.384 161.377C308.974 158.362 303.804 153.32 300.304 156.299C266.091 185.585 256.739 239.689 280.559 278.324C311.074 327.583 374.33 336.466 426.438 323.456C431.016 322.271 429.113 315.362 424.625 316.475Z" fill="#3B3B3B"/>
<path d="M461.89 303.285L446.345 310.463C442.162 312.402 445.806 318.593 449.935 316.654L465.48 309.476C469.698 307.538 466.054 301.347 461.89 303.285Z" fill="#3B3B3B"/>
<path d="M197.001 338.332L195.206 337.435C194.183 336.914 193.268 338.475 194.309 338.978L196.104 339.875C197.127 340.396 198.042 338.834 197.001 338.332Z" fill="#E5E1E1"/>
<path style="mix-blend-mode:multiply" d="M118.021 304.165L54.7476 334.886C64.0573 341.108 73.8888 346.512 84.1317 351.037L140.62 312.079" fill="url(#paint1_linear_59:1516)"/>
<path d="M110.159 278.503C110.159 278.503 107.503 309.979 124.304 315.524C141.105 321.069 149.434 304.99 148.841 277.283" fill="#F5961F"/>
<path d="M129.843 289.051C140.524 288.712 149.024 283.434 148.828 277.263C148.632 271.092 139.814 266.364 129.133 266.703C118.451 267.043 109.951 272.321 110.148 278.492C110.344 284.663 119.162 289.391 129.843 289.051Z" fill="#F2696A"/>
<path d="M133.656 252.878C133.656 252.878 125.722 242.111 128.791 234.484C128.791 234.484 131.376 229.532 135.217 228.634C135.217 228.634 135.217 239.025 138.987 237.607C142.756 236.189 138.646 226.732 138.646 226.732C138.646 226.732 142.541 221.098 146.993 221.133C151.444 221.169 147.298 230.842 150.349 229.173C153.401 227.504 150.242 219.465 153.688 218.406C156.851 217.594 160.066 216.994 163.309 216.611C163.309 216.611 166.899 225.979 163.65 227.378C160.401 228.778 155.591 229.46 157.978 231.47C160.365 233.48 166.953 230.878 166.953 230.878C166.953 230.878 167.527 236.261 165.373 238.576C163.219 240.891 149.901 236.279 152.36 240.783C154.819 245.287 163.345 242.667 163.345 242.667C160.854 246.418 157.675 249.664 153.975 252.232C148.842 255.283 133.656 252.878 133.656 252.878Z" fill="#8CCC00"/>
<path d="M136.312 280.226C136.312 280.226 130.658 274.986 131.592 270.303C132.088 268.647 133.165 267.226 134.625 266.301C134.625 266.301 135.702 272.205 137.713 270.985C139.723 269.764 136.348 264.847 136.348 264.847C136.348 264.847 137.946 261.258 140.495 260.774C143.044 260.289 141.715 266.247 143.259 264.973C144.803 263.699 142.164 259.482 143.995 258.495C145.7 257.684 147.457 256.989 149.254 256.413C149.254 256.413 152.288 261.348 150.601 262.532C148.913 263.717 146.239 264.578 147.818 265.457C149.398 266.337 152.809 264.165 152.809 264.165C153.317 265.636 153.317 267.235 152.809 268.705C151.839 270.285 143.833 269.046 145.628 271.343C147.423 273.64 152.144 271.343 152.144 271.343C151.127 273.738 149.665 275.917 147.836 277.768C145.18 279.993 136.312 280.226 136.312 280.226Z" fill="#8CCC00"/>
<path d="M115.778 269.172C115.778 269.172 102.477 270.105 97.6482 263.394C97.6482 263.394 94.848 258.567 96.1583 254.834C96.1583 254.834 104.9 260.469 105.744 256.467C106.587 252.465 96.3917 250.922 96.3917 250.922C96.3917 250.922 93.7351 244.623 96.1583 240.873C98.5816 237.122 104.523 245.826 104.738 242.362C104.954 238.899 96.4814 237.248 97.4328 233.749C98.4242 230.633 99.6236 227.588 101.023 224.633C101.023 224.633 110.859 226.643 110.339 230.16C109.818 233.677 107.754 238.074 110.734 237.14C113.713 236.207 115.006 229.334 115.006 229.334C115.006 229.334 119.798 231.703 120.642 234.718C121.486 237.733 110.375 246.526 115.508 246.867C120.642 247.208 123.101 238.54 123.101 238.54C124.928 242.658 125.957 247.085 126.135 251.586C125.973 257.687 115.778 269.172 115.778 269.172Z" fill="#8CCC00"/>
<path d="M160.527 220.793L156.38 224.579C156.47 223.072 156.614 221.564 156.793 220.057C156.901 219.267 155.662 218.962 155.573 219.77C155.321 221.791 155.142 223.813 155.034 225.835C151.444 229.227 147.854 232.78 144.48 236.602C144.104 234.06 143.948 231.49 144.013 228.922C144.013 228.114 142.774 228.15 142.756 228.922C142.692 231.891 142.915 234.86 143.421 237.786C141.295 240.205 139.306 242.739 137.461 245.377C135.206 242.464 133.624 239.087 132.83 235.489C132.651 234.7 131.448 235.077 131.627 235.866C132.468 239.706 134.175 243.302 136.617 246.382L136.743 246.49C131.157 254.456 128.087 263.913 127.93 273.64C127.93 274.448 129.186 274.412 129.186 273.64C129.343 264.262 132.286 255.142 137.641 247.441C142.768 248.627 148.055 248.973 153.293 248.464C154.101 248.464 154.065 247.136 153.293 247.207C148.322 247.69 143.307 247.387 138.43 246.31C140.982 242.621 143.802 239.124 146.867 235.848H146.975C149.918 236.01 152.862 236.189 155.824 236.189C157.659 236.386 159.513 236.108 161.209 235.382C161.927 234.987 161.209 233.928 160.545 234.323C158.552 235.418 155.68 234.969 153.508 234.897C151.713 234.897 149.775 234.754 147.908 234.646C152.252 230.07 156.883 225.781 161.442 221.69C162.053 221.116 161.137 220.254 160.527 220.793Z" fill="#06577A"/>
<path d="M122.293 246.526C122.32 246.368 122.286 246.207 122.197 246.074C122.109 245.941 121.973 245.846 121.818 245.81C121.662 245.773 121.499 245.797 121.361 245.877C121.222 245.956 121.119 246.086 121.073 246.238C119.861 250.923 117.158 255.086 113.372 258.1C111.817 254.188 110.387 250.228 109.082 246.221C112.024 243.095 114.409 239.49 116.137 235.561C116.46 234.825 115.347 234.215 115.024 234.969C113.432 238.576 111.268 241.903 108.616 244.821C107.162 240.227 105.851 235.597 104.72 230.896C104.523 230.106 103.32 230.483 103.518 231.272C105.061 237.697 106.916 244.019 109.082 250.24C106.692 249.852 104.359 249.171 102.136 248.212C101.4 247.889 100.789 249.002 101.543 249.325C104.079 250.444 106.753 251.216 109.495 251.622V251.622C110.949 255.731 112.565 259.769 114.288 263.771C110.518 263.769 106.781 263.07 103.266 261.707C102.513 261.42 101.92 262.514 102.674 262.82C106.562 264.335 110.708 265.078 114.88 265.009C117.058 269.986 119.451 274.879 122.06 279.688C122.437 280.406 123.514 279.688 123.119 279.024C119.669 272.62 116.577 266.031 113.857 259.284V259.284C118.003 256.081 120.97 251.594 122.293 246.526V246.526Z" fill="#06577A"/>
<path d="M145.61 262.084L142.326 268.006C141.885 267.447 141.5 266.846 141.177 266.211C140.8 265.493 139.741 266.211 140.118 266.875C140.54 267.678 141.052 268.431 141.644 269.118V269.118L138.054 275.525C137.617 275.137 137.325 274.611 137.228 274.035C137.102 273.246 135.846 273.281 135.971 274.035C136.117 275.042 136.644 275.954 137.443 276.583L132.992 284.605C132.913 284.752 132.896 284.925 132.945 285.085C132.994 285.245 133.104 285.379 133.252 285.457C133.399 285.536 133.572 285.552 133.732 285.504C133.892 285.455 134.026 285.344 134.105 285.197L139.974 274.609C141.015 274.594 142.046 274.406 143.026 274.053C143.78 273.784 143.421 272.564 142.649 272.851C142.022 273.071 141.371 273.215 140.71 273.281L146.652 262.515C146.644 262.398 146.604 262.285 146.535 262.19C146.467 262.095 146.373 262.021 146.265 261.976C146.157 261.931 146.038 261.917 145.922 261.936C145.807 261.955 145.699 262.007 145.61 262.084Z" fill="#06577A"/>
</g>
<defs>
<filter id="filter0_d_59:1516" x="-4" y="0" width="726" height="549" filterUnits="userSpaceOnUse" color-interpolation-filters="sRGB">
<feFlood flood-opacity="0" result="BackgroundImageFix"/>
<feColorMatrix in="SourceAlpha" type="matrix" values="0 0 0 0 0 0 0 0 0 0 0 0 0 0 0 0 0 0 127 0" result="hardAlpha"/>
<feOffset dy="4"/>
<feGaussianBlur stdDeviation="2"/>
<feComposite in2="hardAlpha" operator="out"/>
<feColorMatrix type="matrix" values="0 0 0 0 0 0 0 0 0 0 0 0 0 0 0 0 0 0 0.25 0"/>
<feBlend mode="normal" in2="BackgroundImageFix" result="effect1_dropShadow_59:1516"/>
<feBlend mode="normal" in="SourceGraphic" in2="effect1_dropShadow_59:1516" result="shape"/>
</filter>
<linearGradient id="paint0_linear_59:1516" x1="227.534" y1="448.514" x2="335.224" y2="347.184" gradientUnits="userSpaceOnUse">
<stop stop-opacity="0"/>
<stop offset="0.99" stop-color="#552800"/>
</linearGradient>
<linearGradient id="paint1_linear_59:1516" x1="147.441" y1="283.026" x2="77.183" y2="340.236" gradientUnits="userSpaceOnUse">
<stop stop-color="#D4A397"/>
<stop offset="1" stop-color="white"/>
</linearGradient>
</defs>
</svg>
