<svg width="50" height="50" viewBox="0 0 50 50" fill="none" xmlns="http://www.w3.org/2000/svg">
<path d="M35.896 25.0888C34.9351 24.632 33.9547 24.2386 32.9572 23.909C36.188 21.484 38.2817 17.6226 38.2817 13.2812C38.2817 5.95801 32.3238 0 25.0005 0C17.6771 0 11.7192 5.95801 11.7192 13.2812C11.7192 17.6273 13.8176 21.4926 17.0545 23.9171C14.0888 24.8935 11.3061 26.4127 8.87057 28.416C4.40455 32.0896 1.29938 37.2135 0.127208 42.844C-0.240174 44.6083 0.199962 46.4204 1.33453 47.8155C2.46354 49.2038 4.13766 50 5.9275 50H29.9809C31.0596 50 31.934 49.1256 31.934 48.0469C31.934 46.9682 31.0596 46.0938 29.9809 46.0938H5.9275C5.09371 46.0938 4.59068 45.6283 4.3651 45.351C3.97555 44.872 3.82477 44.2484 3.95143 43.6401C5.97828 33.9043 14.5658 26.7924 24.4827 26.5525C24.6545 26.5592 24.827 26.5625 25.0005 26.5625C25.1755 26.5625 25.3499 26.5591 25.5233 26.5523C28.5624 26.6236 31.4852 27.3172 34.219 28.6168C35.1933 29.0797 36.3584 28.6655 36.8214 27.6912C37.2845 26.717 36.8703 25.5519 35.896 25.0888ZM25.4768 22.6442C25.3183 22.6414 25.1595 22.6399 25.0005 22.6399C24.8428 22.6399 24.6852 22.6415 24.5278 22.6444C19.5771 22.3975 15.6255 18.2922 15.6255 13.2812C15.6255 8.11182 19.831 3.90625 25.0005 3.90625C30.1699 3.90625 34.3755 8.11182 34.3755 13.2812C34.3755 18.2909 30.4257 22.3954 25.4768 22.6442Z" fill="#616465"/>
<path d="M48.0469 38.7695H42.6758V33.3984C42.6758 32.3197 41.8014 31.4453 40.7227 31.4453C39.6439 31.4453 38.7695 32.3197 38.7695 33.3984V38.7695H33.3984C32.3197 38.7695 31.4453 39.6439 31.4453 40.7227C31.4453 41.8014 32.3197 42.6758 33.3984 42.6758H38.7695V48.0469C38.7695 49.1256 39.6439 50 40.7227 50C41.8014 50 42.6758 49.1256 42.6758 48.0469V42.6758H48.0469C49.1256 42.6758 50 41.8014 50 40.7227C50 39.6439 49.1256 38.7695 48.0469 38.7695Z" fill="#F6862F"/>
</svg>
