<svg width="50" height="50" viewBox="0 0 50 50" fill="none" xmlns="http://www.w3.org/2000/svg">
<g clip-path="url(#clip0_83:272)">
<path d="M25.0559 49.9999C32.4746 49.9999 45.0308 49.0362 45.0308 45.4227C45.0308 42.1767 35.0973 41.2436 30.1095 40.9771L30.2401 40.8183C31.7139 38.9932 33.2121 37.1827 34.7038 35.3692L35.5091 34.3931C35.9727 33.8338 36.4558 33.2775 36.9407 32.7194C38.284 31.2517 39.5103 29.681 40.6081 28.0217C45.3952 20.3414 43.8594 10.3166 36.9926 4.42123C30.1258 -1.47374 19.984 -1.47374 13.1172 4.42123C6.24996 10.3166 4.71453 20.3414 9.5017 28.0217C10.5998 29.6822 11.8265 31.254 13.1706 32.7225C13.656 33.281 14.1386 33.8369 14.6003 34.3946L15.4079 35.3727C16.8992 37.1827 18.3974 38.9932 19.8748 40.8226L20.0022 40.9771C15.014 41.2436 5.08057 42.1806 5.08057 45.4227C5.08057 49.0362 17.6367 49.9999 25.0559 49.9999ZM16.692 34.3098L15.8828 33.331C15.4118 32.7616 14.921 32.1957 14.4264 31.6271C13.1404 30.2226 11.9652 28.7197 10.9116 27.1327C6.5637 20.1505 7.96163 11.0398 14.2037 5.68281C20.4457 0.325465 29.6633 0.325465 35.905 5.68281C42.147 11.0398 43.5453 20.1505 39.197 27.1327C38.1446 28.7181 36.9701 30.2191 35.6849 31.6224C35.1907 32.1906 34.6995 32.7565 34.2266 33.3275L33.4194 34.3048C31.9211 36.1206 30.4233 37.9384 28.9475 39.7636L25.7016 43.7346C25.542 43.9256 25.3057 44.036 25.057 44.036C24.808 44.036 24.5721 43.9256 24.4125 43.7346L21.1665 39.7686C19.6915 37.9435 18.191 36.1257 16.692 34.3098ZM21.3168 42.5854L23.1207 44.7917C23.5963 45.37 24.3063 45.7051 25.0551 45.7051C25.8042 45.7051 26.5142 45.37 26.9899 44.7917L28.7945 42.5842C38.4905 42.9607 43.1405 44.6441 43.3679 45.406C43.0739 46.4286 36.527 48.3355 25.0559 48.3355C13.5843 48.3355 7.03742 46.4286 6.74537 45.4382C6.9708 44.6461 11.6209 42.9615 21.3168 42.5854Z" fill="#616465"/>
<path d="M40.0373 18.3729C40.0373 10.0988 33.3296 3.3916 25.056 3.3916C16.7819 3.3916 10.0747 10.0988 10.0747 18.3729C10.0747 26.6469 16.7819 33.3542 25.056 33.3542C33.3258 33.3445 40.0276 26.6427 40.0373 18.3729ZM11.7391 18.3729C11.7391 11.0184 17.7011 5.0564 25.056 5.0564C32.4105 5.0564 38.3725 11.0184 38.3725 18.3729C38.3725 25.7274 32.4105 31.6897 25.056 31.6897C17.705 31.6808 11.748 25.7239 11.7391 18.3729Z" fill="#F6862F"/>
<path d="M17.5649 11.1859C17.7733 11.1859 17.974 11.1077 18.1277 10.9671C19.9025 9.32204 22.213 8.37576 24.632 8.30371C25.0918 8.28783 25.4516 7.90281 25.4361 7.44303C25.4203 6.98326 25.0348 6.62342 24.5755 6.63891C21.7591 6.72219 19.0686 7.82302 17.0013 9.73766C16.7465 9.96929 16.6609 10.3342 16.7856 10.6553C16.9107 10.9764 17.2206 11.1875 17.5649 11.1859Z" fill="#F6862F"/>
<path d="M25.555 30.4081C28.3663 30.2926 31.0452 29.1794 33.1105 27.2687C33.4479 26.9561 33.468 26.4289 33.1554 26.0915C32.8429 25.7541 32.3161 25.734 31.9787 26.0466C30.2043 27.6893 27.9027 28.646 25.4868 28.7448C25.027 28.7541 24.6618 29.1341 24.6711 29.5939C24.6804 30.0536 25.0604 30.4189 25.5201 30.4096L25.555 30.4081Z" fill="#F6862F"/>
<path d="M28.1228 8.68937C28.5423 8.68937 28.8824 8.34889 28.8824 7.9294C28.8824 7.50952 28.5423 7.16943 28.1228 7.16943C27.7029 7.16943 27.3628 7.50952 27.3628 7.9294C27.3628 8.34889 27.7029 8.68937 28.1228 8.68937Z" fill="#F6862F"/>
</g>
<defs>
<clipPath id="clip0_83:272">
<rect width="50" height="50" fill="white"/>
</clipPath>
</defs>
</svg>
