<svg width="255" height="57" viewBox="0 0 255 57" fill="none" xmlns="http://www.w3.org/2000/svg">
<g clip-path="url(#clip0)">
<path d="M51.183 16.9318V36.7823C49.5087 35.7772 47.8831 34.7141 46.4424 33.3998C43.4442 30.6841 41.7213 27.3886 40.9717 23.6098C40.3195 20.2563 38.6744 17.4247 35.5108 15.5112C33.6905 14.4094 31.6949 13.9552 29.641 13.8586C25.4455 13.6653 21.3279 14.0035 17.2395 14.5931C16.7625 14.6607 16.305 14.8153 15.8669 14.97C15.5652 15.0763 15.205 15.1922 15.2439 15.5885C15.2829 15.9654 15.6625 16.1007 15.9643 16.2263C16.8793 16.5839 17.8138 16.9125 18.7483 17.2507C21.6394 18.2945 24.5402 19.2996 27.4216 20.382C29.2613 21.0778 30.1958 22.4695 29.8843 24.2187C29.3587 27.176 28.8428 30.1526 27.7233 32.9455C26.8959 35.033 25.7667 35.6226 23.4013 35.0524C20.8022 34.4242 18.3005 33.4288 15.7599 32.5686C14.2316 32.0564 12.713 31.5056 11.1847 31.003C10.7564 30.8677 10.1724 30.5681 9.89006 30.9644C9.56883 31.4283 10.1334 31.8342 10.4352 32.1821C11.6812 33.6124 13.1705 34.8108 14.6112 36.0478C17.1908 38.2512 19.8483 40.3484 22.6517 42.2909C25.3092 44.1271 28.0543 44.3204 30.9064 43.5763C34.3232 42.6871 37.7205 42.7355 41.108 44.3494C41.7213 44.6393 42.3248 44.9486 42.9186 45.2965C43.6584 45.7314 44.3982 46.176 45.138 46.6302L28.2976 56.2848C26.6331 57.2319 24.5597 57.2416 22.8854 56.2848L2.70614 44.7167C1.04157 43.7696 0 41.9817 0 40.0681V16.9318C0 15.0279 1.04157 13.2401 2.70614 12.2833L22.8854 0.715132C24.5597 -0.241633 26.6331 -0.241633 28.2976 0.715132L48.4671 12.2833C50.1414 13.2401 51.183 15.0279 51.183 16.9318Z" fill="#F6862F"/>
<path d="M62.2992 35.1108C64.0514 37.4979 65.9593 38.9862 68.8894 38.9862C71.2937 38.9862 72.715 37.8554 72.715 36.0385C72.715 34.4633 71.8583 33.9027 69.2982 32.7237L66.4071 31.4287C62.2992 29.6118 59.8949 27.3117 59.8949 23.7552C59.8949 19.1937 63.7205 16.1978 68.8018 16.1978C72.9096 16.1978 76.0052 18.1789 77.6697 21.2425L73.922 24.1128C72.5397 22.0543 70.8265 21.0396 68.792 21.0396C66.8744 21.0396 65.4532 21.9673 65.4532 23.6199C65.4532 25.0309 66.3098 25.6784 68.5876 26.6932L71.6344 28.0268C76.1512 30.008 78.2635 32.2308 78.2635 35.8259C78.2635 40.7161 74.2335 43.828 68.8602 43.828C64.3045 43.828 60.5568 41.5279 58.4834 37.9328L62.2992 35.1108Z" fill="#3B3B3B"/>
<path d="M86.3431 35.1881C86.9953 37.7298 89.0687 39.1408 91.9988 39.1408C93.9943 39.1408 95.8633 38.4546 97.6155 37.121L99.8933 40.8417C97.4889 42.8229 94.8022 43.828 91.8333 43.828C85.6033 43.9536 80.6875 39.1408 80.8043 33.3616C80.6875 27.5823 85.5255 22.7792 91.3466 22.8951C96.9243 22.8951 100.828 26.9735 100.828 32.1825C100.828 33.1489 100.711 34.1637 100.458 35.1784H86.3431V35.1881ZM95.5031 31.3514C95.4642 28.887 93.5465 27.3117 91.1519 27.3117C88.8351 27.3117 86.9661 28.887 86.3529 31.3514H95.5031Z" fill="#3B3B3B"/>
<path d="M116.656 28.6452H115.186C111.886 28.6452 109.773 30.4235 109.773 33.8543V43.8375H104.283V23.8324H109.326V26.2195C110.669 24.5572 112.626 23.5908 114.864 23.5908C115.556 23.5908 116.13 23.6681 116.656 23.8324V28.6452Z" fill="#3B3B3B"/>
<path d="M138.792 23.3496L128.824 43.8282H126.994L117.026 23.3496H122.798L127.889 34.6665L132.971 23.3496H138.792Z" fill="#3B3B3B"/>
<path d="M143.921 13.1729C145.878 13.1729 147.465 14.6322 147.465 16.565C147.465 18.4689 145.878 19.9185 143.921 19.9185C141.965 19.9185 140.427 18.4592 140.427 16.565C140.417 14.6225 141.965 13.1729 143.921 13.1729ZM141.196 23.8326H146.686V43.828H141.196V23.8326Z" fill="#3B3B3B"/>
<path d="M160.966 22.9048C164.909 22.9048 167.965 24.7603 169.717 27.8336L165.892 30.7812C164.626 28.9643 163.166 27.8722 161.054 27.8722C157.958 27.8722 155.768 30.211 155.768 33.3229C155.768 36.5121 157.968 38.8122 161.054 38.8122C163.127 38.8122 164.597 37.7588 165.892 35.9419L169.717 38.8509C167.965 41.9241 164.879 43.8183 160.966 43.8183C155.067 43.9439 150.103 39.0925 150.181 33.3132C150.19 27.4663 154.989 22.9048 160.966 22.9048Z" fill="#3B3B3B"/>
<path d="M176.96 35.1881C177.612 37.7298 179.685 39.1408 182.615 39.1408C184.611 39.1408 186.48 38.4546 188.232 37.121L190.51 40.8417C188.106 42.8229 185.419 43.828 182.45 43.828C176.22 43.9536 171.304 39.1408 171.421 33.3616C171.304 27.5823 176.142 22.7792 181.963 22.8951C187.541 22.8951 191.444 26.9735 191.444 32.1825C191.444 33.1489 191.328 34.1637 191.075 35.1784H176.96V35.1881ZM186.12 31.3514C186.081 28.887 184.163 27.3117 181.769 27.3117C179.452 27.3117 177.583 28.887 176.97 31.3514H186.12Z" fill="#3B3B3B"/>
<path d="M196.73 17.6187H206.649C212.169 17.6187 216.169 21.0398 216.169 26.0846C216.169 31.0907 212.169 34.5795 206.649 34.5795H202.133V43.8379H196.73V17.6187ZM206.649 29.8923C209.17 29.8923 210.65 28.346 210.65 26.0846C210.65 23.8618 209.093 22.3542 206.649 22.3542H202.133V29.902H206.649V29.8923Z" fill="#F6862F"/>
<path d="M231.491 28.8967H230.05C226.809 28.8967 224.726 30.646 224.726 34.0188V43.8281H219.323V24.1709H224.278V26.5193C225.602 24.8861 227.52 23.939 229.719 23.939C230.401 23.939 230.956 24.0163 231.481 24.1709V28.8967H231.491Z" fill="#F6862F"/>
<path d="M247.144 33.932C247.144 35.8648 245.557 37.4401 243.61 37.4401C241.663 37.4401 240.077 35.8648 240.077 33.932C240.077 31.9991 241.663 30.4238 243.61 30.4238C245.557 30.4238 247.144 31.9991 247.144 33.932Z" fill="#F6862F"/>
<path d="M238.295 43.8279C238.023 43.8279 237.76 43.683 237.624 43.4414L232.319 34.3086C232.182 34.067 232.182 33.7771 232.319 33.5354L237.624 24.4027C237.76 24.1611 238.023 24.0161 238.295 24.0161H248.916C249.188 24.0161 249.451 24.1611 249.587 24.4027L254.892 33.5354C255.029 33.7771 255.029 34.067 254.892 34.3086L249.587 43.4414C249.451 43.683 249.188 43.8279 248.916 43.8279H238.295ZM243.61 27.07C239.794 27.07 236.699 30.1529 236.699 33.9317C236.699 37.7104 239.804 40.7933 243.61 40.7933C247.426 40.7933 250.522 37.7104 250.522 33.9317C250.522 30.1529 247.416 27.07 243.61 27.07Z" fill="#F6862F"/>
</g>
<defs>
<clipPath id="clip0">
<rect width="255" height="57" fill="white"/>
</clipPath>
</defs>
</svg>
