<svg width="60" height="60" viewBox="0 0 60 60" fill="none" xmlns="http://www.w3.org/2000/svg">
<path fill-rule="evenodd" clip-rule="evenodd" d="M1.25 14.6428C1.25 11.4135 3.81985 8.75 7.04545 8.75H47.9545C51.1803 8.75 53.75 11.4135 53.75 14.6428V27.5C53.75 28.1903 53.1903 28.75 52.5 28.75C51.8097 28.75 51.25 28.1903 51.25 27.5V14.6428C51.25 12.7439 49.7498 11.25 47.9545 11.25H7.04545C5.25028 11.25 3.75 12.7439 3.75 14.6428V37.8573C3.75 39.756 5.25028 41.25 7.04545 41.25H25C25.6903 41.25 26.25 41.8097 26.25 42.5C26.25 43.1903 25.6903 43.75 25 43.75H7.04545C3.81985 43.75 1.25 41.0865 1.25 37.8573V14.6428Z" fill="#616465"/>
<path fill-rule="evenodd" clip-rule="evenodd" d="M1.25 17.5C1.25 16.8097 1.80964 16.25 2.5 16.25H52.5C53.1903 16.25 53.75 16.8097 53.75 17.5C53.75 18.1904 53.1903 18.75 52.5 18.75H2.5C1.80964 18.75 1.25 18.1904 1.25 17.5Z" fill="#616465"/>
<path fill-rule="evenodd" clip-rule="evenodd" d="M6.25 30C6.25 29.3097 6.80965 28.75 7.5 28.75H12.5C13.1904 28.75 13.75 29.3097 13.75 30C13.75 30.6902 13.1904 31.25 12.5 31.25H7.5C6.80965 31.25 6.25 30.6902 6.25 30Z" fill="#616465"/>
<path fill-rule="evenodd" clip-rule="evenodd" d="M6.25 36.25C6.25 35.5597 6.80965 35 7.5 35H17.5C18.1903 35 18.75 35.5597 18.75 36.25C18.75 36.9402 18.1903 37.5 17.5 37.5H7.5C6.80965 37.5 6.25 36.9402 6.25 36.25Z" fill="#616465"/>
<path fill-rule="evenodd" clip-rule="evenodd" d="M45 33.75C38.7867 33.75 33.75 38.7867 33.75 45C33.75 51.2132 38.7867 56.25 45 56.25C51.2132 56.25 56.25 51.2132 56.25 45C56.25 38.7867 51.2132 33.75 45 33.75ZM31.25 45C31.25 37.406 37.406 31.25 45 31.25C52.594 31.25 58.75 37.406 58.75 45C58.75 52.594 52.594 58.75 45 58.75C37.406 58.75 31.25 52.594 31.25 45Z" fill="#F6862F"/>
<path fill-rule="evenodd" clip-rule="evenodd" d="M49.116 42.866C49.6042 42.378 50.3957 42.378 50.884 42.866C51.372 43.3543 51.372 44.1457 50.884 44.634L45.884 49.634C45.3957 50.122 44.6042 50.122 44.116 49.634L40.366 45.884C39.878 45.3958 39.878 44.6043 40.366 44.116C40.8542 43.628 41.6457 43.628 42.134 44.116L45 46.9823L49.116 42.866Z" fill="#F6862F"/>
</svg>
